<svg id="Layer_1" data-name="Layer 1" xmlns="http://www.w3.org/2000/svg" viewBox="0 0 300 300"><defs><style>.cls-1{fill:#535757;}.cls-2{fill:#14607f;}</style></defs><title>SplashLogo</title><g id="UNICEF_Emblem" data-name="UNICEF Emblem"><path class="cls-1" d="M149.66,19.66c-46.77,0-85.29,36.9-85.29,83.2,0,45.62,37.83,83.2,85.29,83.2,46.77,0,85.28-36.91,85.28-83.2s-38.51-83.2-85.28-83.2m66,36.9c-4.12,2.69-8.94,5.37-13.75,8.06a75.93,75.93,0,0,0-10.32-15.44,114,114,0,0,0,9.63-6.71c6.19,3.36,11,8.73,14.44,14.09m-35.76-27.5a77.52,77.52,0,0,1,19.26,10.73,48.81,48.81,0,0,1-9.63,6.71,122.31,122.31,0,0,0-13.76-12.75,29.38,29.38,0,0,1,4.13-4.69m6.88,18.78c-4.82,2.69-9.63,4-14.45,6a82.55,82.55,0,0,0-6.87-13.42c2.75-1.34,5.5-2.68,7.56-4.69A76.62,76.62,0,0,1,186.8,47.84M176.48,27.71a18.08,18.08,0,0,0-3.44,4c-4.81-2.68-8.94-5.37-14.44-7.38a52.85,52.85,0,0,1,17.88,3.35m-6.19,6a28.16,28.16,0,0,1-6.19,3.36c-2.75-4-5.5-7.38-8.25-11.41a78,78,0,0,1,14.44,8.05M151,26.37A55.88,55.88,0,0,1,160,38.45,35.67,35.67,0,0,1,151,39.79Zm0,16.78a31.93,31.93,0,0,0,11-2,83,83,0,0,1,6.87,13.42A144.34,144.34,0,0,1,151,57.24Zm-3.44-16.78V39.79a48.52,48.52,0,0,1-8.94-1.34,135.78,135.78,0,0,0,8.94-12.08M135.9,37.11a18.26,18.26,0,0,1-6.19-3.36,149.24,149.24,0,0,1,14.44-7.38,41,41,0,0,0-8.25,10.74m4.81-13.42a148.14,148.14,0,0,0-14.44,7.38,17.9,17.9,0,0,1-3.44-4,140.48,140.48,0,0,1,17.88-3.35m58.47,142.24c-11-6-11.7-14.76-11-17.45.69-3.35,2.75-2,4.13-2,7.56,0,15.13-2,24.76-12.08,11-10.73,14.44-34.89-2.75-50.32C196.43,67.3,177.17,70,164.79,85.41c-2.75,3.36-8.94,5.37-13.76,5.37-8.25,0-2.75,6-2.75,7.38a2.18,2.18,0,0,1-2.06,2c-2.75-.68-1.38,3.35-1.38,4s-1.37,2-1.37,2c-3.44,0-2.76,2.69-2.07,4a2.65,2.65,0,0,1-1.37,2.68c-1.38.67-2.07,3.36-2.07,5.37,0,3.36,3.44,6,8.94,10.06s6.2,8.06,6.2,10.74a50.38,50.38,0,0,0,1.37,10.06c1.38,3.36,1.38,10.07-6.19,10.07-9.63.67-26.14,7.38-27.51,8.05a32.7,32.7,0,0,1-17.88,1.34,71.56,71.56,0,0,1-8.26-6.71c-1.37-3.35.69-7.38,2.75-10.06,3.44,3.35,7.57,2.68,10.32,2.68a131.81,131.81,0,0,0,17.2-2.68c2.06-.67,2.75-.67,3.43,0,4.82,2,11.7,2,14.45-6.71,2.75-9.4-3.44-6.71-4.82-6-.68.67-2.06,0-1.37-.67,1.37-2-.69-2-1.38-2-2.75,0-6.19,2.68-6.88,3.35a5.29,5.29,0,0,1-2.75.67c-3.44-2-13.75.67-17.19-4.7,0-1.34-2.75-23.48-4.13-27.5,0-.67-.69-2,.69-3.36,2.75-4,9.63,0,13.76,0,4.81,0,5.5-2,6.87-3.35s2.07-.67,2.75-1.34,0-1.35,0-2,.69,0,1.38-.67,0-2,0-2.68c1.38-2,4.13-.67,2.75-4.7a7.36,7.36,0,0,1,2.06-6.71c2.07-2.68,11-14.76-4.12-27.51C116,43.82,100.82,45.16,91.19,55.22s-4.81,24.83-4.12,28.85S85,91.45,81.57,92.8a88.06,88.06,0,0,0-13.07,8.72,78.17,78.17,0,0,1,50.89-71.79c1.38,1.34,2.75,3.35,4.13,4.69-3.44,2.69-11,8.73-11,8.73a5.45,5.45,0,0,1,2.06.67,7,7,0,0,1,2.06.67s6.19-5.37,9.63-7.38c2.06,2,4.82,3.35,7.57,4.69-1.38,2.69-5.51,9.4-5.51,9.4a2.43,2.43,0,0,0,1.38.67,2.17,2.17,0,0,0,1.38.67s4.12-7.38,5.5-10.07a28.06,28.06,0,0,0,10.32,2V57.91c-2.07,0-6.88,0-8.95-.67h-1.37l.69,1.34c.68.67.68,1.34,1.37,2h8.25V85.41h3.44v-6A94.76,94.76,0,0,0,164.79,78h0l4.81-4h-2.75a129.3,129.3,0,0,1-14.44,1.34h-2.07V59.92a63.68,63.68,0,0,0,19.26-2.68c1.38,4,4.82,14.09,4.82,14.09L177.86,70,173,55.89c5.5-1.34,10.32-4,15.13-6a75.59,75.59,0,0,1,10.32,15.43A65.66,65.66,0,0,1,191.61,68c3.44.67,6.19,1.34,6.19,1.34a7.11,7.11,0,0,1,2.06-.67,6.62,6.62,0,0,0,.69,2l4.82,2-.69-1.34a22.27,22.27,0,0,0-2.06-4,78.31,78.31,0,0,0,14.44-8C226,72,230.13,87.43,230.13,102.86c1.37,25.49-11.7,48.31-30.95,63.07"/><path class="cls-1" d="M56.8,41.8l-1.37,1.35c-4.82,4-16.51,15.43-14.44,28.18V72l.68,2.68,1.38-1.34c6.88-6,12.38-16.78,14.44-28.85l.69-3.36Z"/><path class="cls-1" d="M33.42,63.27l-.69,1.35A66.11,66.11,0,0,0,30,76.69c-1.37,8-.69,20.13,6.19,28.85l.69,1.34.69,1.35,1.37-5.37C40.3,93.47,38.23,74,34.8,65.29L33.42,62.6Z"/><path class="cls-1" d="M25.17,96.82v1.34c-.69,8,0,28.85,17.19,40.26l2.06,1.34v-2.68c0-8.05-9.62-31.54-16.5-39.59l-2.07-2.68Z"/><path class="cls-1" d="M27.92,133.72v1.34c2.75,12.08,13.75,30.87,31.64,36.91l2.75.67L61.62,170C58.18,161.23,41,140.43,30,133.72l-2.06-1.34Z"/><path class="cls-1" d="M64.37,59.92l-2.06.67C49.24,68.64,43.05,78,43.05,90.11V92.8l2.06-1.35c6.88-6,16.51-20.8,18.57-28.85l.69-3.35Z"/><path class="cls-1" d="M56.12,85.41l-.69,1.35C52,90.11,41,101.52,41.67,115.61a23.33,23.33,0,0,0,1.38,6.71l.69,2,1.37-2c5.5-7.38,12.38-26.17,11.69-34.89V84.74Z"/><path class="cls-1" d="M56.8,110.24l-.68,1.34q-8.26,12.08-8.26,24.15c0,5.37,2.07,10.74,5.51,16.11l1.37,2,.69-2c2.06-4.7,4.13-18.79,4.13-30.19a30.32,30.32,0,0,0-1.38-9.4l-.69-2.68Z"/><path class="cls-1" d="M63,136.41l-.68,1.34c-1.38,5.37-2.75,10.06-2.07,15.43,0,10.73,5.51,19.46,15.13,25.49l1.38.68.69-2v-2c0-8.72-6.88-31.53-12.38-38.24l-1.38-2Z"/><path class="cls-1" d="M44.42,171.29l.69,1.35c6.88,11.4,19.26,26.83,42,22.81h2.06l-1.37-1.34c-4.13-6-31.64-21.47-41.27-22.82l-2.75-.67Z"/><path class="cls-1" d="M78.13,200.82h0l-3.44.67,3.44,1.34c14.44,6,32.32,7.38,43.33,4,4.12-1.34,6.19-3.35,8.94-6,18.57,2,35.76,16.77,46.08,28.85l.69.67h.69a14.83,14.83,0,0,0,3.43-2.69L182,227l-.69-.67c-10.31-13.42-26.82-21.47-27.51-22.14-15.13-6.71-41.26-12.08-75.65-3.35"/><path class="cls-1" d="M78.81,163.24v1.35c2.07,13.41,7.57,30.86,31,28.85h1.38l-.69-1.35c-1.37-6-22.69-23.48-30.26-28.18l-2.06-1.34Z"/><path class="cls-1" d="M241.13,40.46l.69,3.36c2.06,12.07,7.57,22.81,14.44,28.85L257.64,74l.69-2.68v-.68c2.06-12.74-9.63-24.15-14.45-28.18l-1.37-1.34Z"/><path class="cls-1" d="M265.2,61.93l-1.37,2.69c-3.44,8.72-4.82,28.18-4.13,37.57l1.38,5.37.69-.68.68-1.34c7.57-8.72,7.57-20.13,6.19-28.85a53.44,53.44,0,0,0-2.75-12.07l-.69-1.35Z"/><path class="cls-1" d="M274.15,95.48l-2.07,2.68c-6.88,8.72-16.5,31.54-16.5,39.59v2.68l2.06-1.34c17.19-10.74,17.88-31.53,17.19-40.26V97.49Z"/><path class="cls-1" d="M271.39,132.38l-2.75,1.34c-11,6.71-28.2,27.51-31.63,36.23l-.69,2.69,2.75-.67c17.88-5.37,29.57-24.83,31.64-36.91v-1.34Z"/><path class="cls-1" d="M234.94,58.58l.69,3.35c2.75,8.72,11,23.48,18.57,29.52l2.06,1.35V90.11c.69-12.08-5.5-21.47-18.57-29.52l-1.37-.67Z"/><path class="cls-1" d="M242.51,84.74v2.69c-.69,8.72,6.88,28.18,11.69,34.89l1.38,2,.68-2c.69-2.69,1.38-4.7,1.38-6.71.69-14.09-10.32-25.5-13.76-28.85l-.68-.67Z"/><path class="cls-1" d="M241.82,108.9l-.69,2.68a30.35,30.35,0,0,0-1.37,9.39c0,11.41,1.37,25.5,4.12,30.2l.69,2,1.38-2a26.88,26.88,0,0,0,5.5-16.11c0-7.38-2.75-16.1-8.25-24.15l-.69-1.34Z"/><path class="cls-1" d="M235.63,135.06l-1.38,2c-5.5,6.71-12.38,29.52-12.38,38.24v2l.69,2,1.38-.68c9.63-6,14.44-14.76,15.13-25.49A63.77,63.77,0,0,0,237,137.75l-.69-1.34Z"/><path class="cls-1" d="M255.58,170l-2.76.67c-9.62,1.35-37.14,16.78-41.26,22.82l-1.38,1.34h2.06c22.7,4,35.08-11.41,42-22.81l.69-1.35Z"/><path class="cls-1" d="M146.22,204.17c-.69,0-17.2,8.72-27.51,22.14L118,227l.69.67c.68.67,2.75,2,3.43,2.69h.69l.69-.67c10.32-12.08,27.51-27.51,46.08-28.85a26.17,26.17,0,0,0,8.94,6c10.32,3.36,28.89,2,43.33-4l3.44-1.34-3.44-.67c-35.07-8.73-61.21-3.36-75.65,3.35"/><path class="cls-1" d="M220.5,161.9l-2.07,1.34c-7.56,4.7-28.19,22.14-30.26,28.18l-.69,1.34h1.38c22.7,2,28.2-15.43,30.95-28.85v-1.34Z"/></g><g id="Committee_UNICEF" data-name="Committee UNICEF"><path class="cls-2" d="M148.31,257.09a5.08,5.08,0,0,1-1.4-3.6c0-.32,0-.84,0-1.57s0-1.28,0-1.61a5.06,5.06,0,0,1,1.41-3.58,5.12,5.12,0,0,1,3.7-1.28,6.17,6.17,0,0,1,2.7.55,4.3,4.3,0,0,1,1.78,1.49,4,4,0,0,1,.67,2.13v0a.3.3,0,0,1-.11.24.37.37,0,0,1-.26.1h-1.68a.44.44,0,0,1-.32-.1.87.87,0,0,1-.17-.35,2.49,2.49,0,0,0-.9-1.56,2.86,2.86,0,0,0-1.71-.46c-1.65,0-2.52.95-2.59,2.87,0,.32,0,.81,0,1.48s0,1.18,0,1.53c.07,1.91.94,2.86,2.59,2.86a2.87,2.87,0,0,0,1.7-.46,2.5,2.5,0,0,0,.91-1.56.87.87,0,0,1,.17-.35.44.44,0,0,1,.32-.1h1.68a.37.37,0,0,1,.27.11.3.3,0,0,1,.1.27,4,4,0,0,1-.67,2.13,4.3,4.3,0,0,1-1.78,1.49,6.17,6.17,0,0,1-2.7.55A5.15,5.15,0,0,1,148.31,257.09Z"/><path class="cls-2" d="M164.37,257.11a4.88,4.88,0,0,1-1.47-3.68c0-.35,0-.86,0-1.53s0-1.2,0-1.54a4.9,4.9,0,0,1,1.5-3.67,6.53,6.53,0,0,1,7.74,0,4.87,4.87,0,0,1,1.51,3.67c0,.69,0,1.21,0,1.54s0,.83,0,1.53a4.88,4.88,0,0,1-1.47,3.68,6.77,6.77,0,0,1-7.81,0Zm5.85-1.56a3.16,3.16,0,0,0,.77-2.21c0-.72,0-1.2,0-1.46s0-.76,0-1.45a3.11,3.11,0,0,0-.79-2.2,2.59,2.59,0,0,0-1.92-.73,2.63,2.63,0,0,0-1.95.73,3.06,3.06,0,0,0-.77,2.2c0,.35,0,.83,0,1.45s0,1.1,0,1.46a3.12,3.12,0,0,0,.76,2.2,2.68,2.68,0,0,0,2,.73A2.61,2.61,0,0,0,170.22,255.55Z"/><path class="cls-2" d="M179.43,258.22a.45.45,0,0,1-.12-.31v-12a.45.45,0,0,1,.12-.33.37.37,0,0,1,.31-.13h1.44a.6.6,0,0,1,.53.35l3.43,6.61,3.44-6.61a.6.6,0,0,1,.53-.35h1.43a.42.42,0,0,1,.32.13.45.45,0,0,1,.12.33v12a.44.44,0,0,1-.12.32.45.45,0,0,1-.32.12H189a.42.42,0,0,1-.31-.13.45.45,0,0,1-.12-.31v-8l-2.47,4.88a.65.65,0,0,1-.59.41h-.75a.68.68,0,0,1-.6-.41L181.69,250v8a.44.44,0,0,1-.11.31.39.39,0,0,1-.31.13h-1.53A.42.42,0,0,1,179.43,258.22Z"/><path class="cls-2" d="M197.39,258.26a.45.45,0,0,1-.12-.32l-.09-12a.48.48,0,0,1,.11-.34.38.38,0,0,1,.3-.13H199a.6.6,0,0,1,.52.35l3.38,6.59,3.28-6.64a.58.58,0,0,1,.51-.36h1.38a.44.44,0,0,1,.32.13.48.48,0,0,1,.12.33l.09,12a.46.46,0,0,1-.12.33.41.41,0,0,1-.31.12h-1.48a.38.38,0,0,1-.3-.13.43.43,0,0,1-.12-.31l-.06-7.95-2.36,4.9a.62.62,0,0,1-.57.41h-.72a.64.64,0,0,1-.59-.4L199.52,250l.06,8a.47.47,0,0,1-.11.31.37.37,0,0,1-.3.13h-1.49A.36.36,0,0,1,197.39,258.26Z"/><path class="cls-2" d="M214.8,258.22a.46.46,0,0,1-.13-.31V245.86a.44.44,0,0,1,.13-.32.4.4,0,0,1,.29-.12h1.67a.38.38,0,0,1,.3.12.44.44,0,0,1,.12.32v12.05a.45.45,0,0,1-.12.31.35.35,0,0,1-.3.13h-1.67A.37.37,0,0,1,214.8,258.22Z"/><path class="cls-2" d="M226.13,258.22a.42.42,0,0,1-.13-.31V247.73h-3.22a.41.41,0,0,1-.29-.13.48.48,0,0,1-.12-.33v-1.39a.44.44,0,0,1,.11-.33.35.35,0,0,1,.3-.13h8.9a.39.39,0,0,1,.31.13.45.45,0,0,1,.12.33v1.39a.48.48,0,0,1-.12.33.42.42,0,0,1-.31.13h-3.2v10.18a.45.45,0,0,1-.12.31.35.35,0,0,1-.3.13h-1.64A.37.37,0,0,1,226.13,258.22Z"/><path class="cls-2" d="M240.15,258.22a.45.45,0,0,1-.12-.31V247.73h-3.22a.41.41,0,0,1-.29-.13.48.48,0,0,1-.12-.33v-1.39a.44.44,0,0,1,.11-.33.38.38,0,0,1,.3-.13h8.89a.4.4,0,0,1,.31.13.45.45,0,0,1,.12.33v1.39a.48.48,0,0,1-.12.33.44.44,0,0,1-.31.13h-3.2v10.18a.49.49,0,0,1-.11.31.39.39,0,0,1-.31.13h-1.63A.38.38,0,0,1,240.15,258.22Z"/><path class="cls-2" d="M251.55,258.22a.45.45,0,0,1-.12-.31v-12a.44.44,0,0,1,.11-.33.41.41,0,0,1,.32-.13h7.95a.41.41,0,0,1,.32.13.45.45,0,0,1,.13.33v1.24a.44.44,0,0,1-.13.32.44.44,0,0,1-.32.12H253.9v3.23h5.51a.44.44,0,0,1,.32.13.45.45,0,0,1,.13.34v1.16a.39.39,0,0,1-.13.32.44.44,0,0,1-.32.12H253.9v3.35h6a.44.44,0,0,1,.32.12.41.41,0,0,1,.13.32v1.26a.41.41,0,0,1-.13.32.44.44,0,0,1-.32.12h-8.09A.42.42,0,0,1,251.55,258.22Z"/><path class="cls-2" d="M265.83,258.22a.42.42,0,0,1-.13-.31v-12a.45.45,0,0,1,.12-.33.42.42,0,0,1,.33-.13h8.23a.45.45,0,0,1,.34.13.42.42,0,0,1,.13.33v1.24a.41.41,0,0,1-.13.32.49.49,0,0,1-.34.12h-6.12v3.23H274a.49.49,0,0,1,.34.13.45.45,0,0,1,.13.34v1.16a.39.39,0,0,1-.13.32.49.49,0,0,1-.34.12h-5.71v3.35h6.27a.49.49,0,0,1,.34.12.41.41,0,0,1,.13.32v1.26a.41.41,0,0,1-.13.32.49.49,0,0,1-.34.12h-8.38A.42.42,0,0,1,265.83,258.22Z"/><path class="cls-2" d="M171.44,275.68a5.23,5.23,0,0,1-1.34-3.92v-7.63a.49.49,0,0,1,.12-.34.37.37,0,0,1,.31-.13h1.65a.42.42,0,0,1,.32.13.49.49,0,0,1,.12.34v7.63a3.28,3.28,0,0,0,.67,2.23,2.81,2.81,0,0,0,3.82,0,3.28,3.28,0,0,0,.67-2.23v-7.63a.49.49,0,0,1,.12-.34.42.42,0,0,1,.32-.13h1.65a.37.37,0,0,1,.31.13.49.49,0,0,1,.12.34v7.63a5.36,5.36,0,0,1-8.86,3.92Z"/><path class="cls-2" d="M186.56,276.84a.42.42,0,0,1-.13-.32V264.13a.49.49,0,0,1,.12-.34.42.42,0,0,1,.33-.13h1.45a.61.61,0,0,1,.54.32l5.31,8.45v-8.3a.45.45,0,0,1,.13-.34.39.39,0,0,1,.32-.13h1.6a.45.45,0,0,1,.34.13.49.49,0,0,1,.13.34V276.5a.49.49,0,0,1-.13.34.45.45,0,0,1-.32.14h-1.47a.61.61,0,0,1-.56-.33l-5.3-8.25v8.12a.45.45,0,0,1-.12.32.42.42,0,0,1-.33.14h-1.59A.43.43,0,0,1,186.56,276.84Z"/><path class="cls-2" d="M203,276.84a.45.45,0,0,1-.12-.32V264.11a.46.46,0,0,1,.12-.33.41.41,0,0,1,.3-.12H205a.38.38,0,0,1,.3.12.46.46,0,0,1,.11.33v12.41a.45.45,0,0,1-.11.32.36.36,0,0,1-.3.14h-1.67A.39.39,0,0,1,203,276.84Z"/><path class="cls-2" d="M213,275.67a5.22,5.22,0,0,1-1.4-3.71c0-.33,0-.87,0-1.62s0-1.32,0-1.67A5.24,5.24,0,0,1,213,265a5,5,0,0,1,3.71-1.32,6.09,6.09,0,0,1,2.69.56,4.29,4.29,0,0,1,1.78,1.55,4.16,4.16,0,0,1,.67,2.2v0a.33.33,0,0,1-.11.25.38.38,0,0,1-.25.11H219.8a.42.42,0,0,1-.31-.11.74.74,0,0,1-.18-.36,2.6,2.6,0,0,0-.9-1.61,2.79,2.79,0,0,0-1.7-.48c-1.66,0-2.52,1-2.59,3,0,.34,0,.85,0,1.54s0,1.21,0,1.57c.07,2,.93,3,2.59,3a2.84,2.84,0,0,0,1.69-.47,2.66,2.66,0,0,0,.91-1.62.86.86,0,0,1,.18-.36.41.41,0,0,1,.31-.1h1.69a.36.36,0,0,1,.27.11.33.33,0,0,1,.09.28,4.21,4.21,0,0,1-.67,2.2,4.27,4.27,0,0,1-1.78,1.54,6,6,0,0,1-2.69.57A5,5,0,0,1,213,275.67Z"/><path class="cls-2" d="M228,276.84a.46.46,0,0,1-.13-.32V264.13a.49.49,0,0,1,.12-.34.39.39,0,0,1,.32-.13h8a.41.41,0,0,1,.32.13.45.45,0,0,1,.13.34v1.28a.42.42,0,0,1-.13.33.44.44,0,0,1-.32.12h-5.92v3.33h5.52a.45.45,0,0,1,.33.14.49.49,0,0,1,.12.34v1.2a.45.45,0,0,1-.12.33.49.49,0,0,1-.33.13h-5.52v3.44h6.06a.46.46,0,0,1,.33.12.49.49,0,0,1,.12.34v1.29a.45.45,0,0,1-.12.33.47.47,0,0,1-.33.13h-8.09A.41.41,0,0,1,228,276.84Z"/><path class="cls-2" d="M242.43,276.84a.45.45,0,0,1-.12-.32V264.13a.48.48,0,0,1,.11-.34.41.41,0,0,1,.32-.13h7.83a.41.41,0,0,1,.32.13.45.45,0,0,1,.13.34v1.37a.44.44,0,0,1-.13.33.41.41,0,0,1-.32.13h-5.76v3.58h5.4a.41.41,0,0,1,.32.13.44.44,0,0,1,.13.32v1.37a.44.44,0,0,1-.13.33.41.41,0,0,1-.32.13h-5.4v4.7a.42.42,0,0,1-.13.32.42.42,0,0,1-.32.14h-1.62A.43.43,0,0,1,242.43,276.84Z"/></g><g id="NGO"><path class="cls-1" d="M25.35,280.57a1.39,1.39,0,0,1-.35-1V241.25a1.49,1.49,0,0,1,.35-1,1.24,1.24,0,0,1,.94-.38h2.59a1.44,1.44,0,0,1,.88.23,4.65,4.65,0,0,1,.58.59L50,271V241.25a1.39,1.39,0,0,1,.39-1,1.3,1.3,0,0,1,1-.38H54a1.32,1.32,0,0,1,1.41,1.41v38.29a1.4,1.4,0,0,1-.39,1,1.25,1.25,0,0,1-1,.41H51.42a1.45,1.45,0,0,1-1.41-.82l-19.67-30V279.6a1.29,1.29,0,0,1-.38,1,1.33,1.33,0,0,1-1,.38h-2.7A1.24,1.24,0,0,1,25.35,280.57Z"/><path class="cls-1" d="M67.76,276.76q-4.19-4.18-4.47-11.35c0-1.16-.06-3-.06-5.47s0-4.34.06-5.47q.24-7.09,4.44-11.26c2.81-2.77,6.72-4.16,11.76-4.16a18.39,18.39,0,0,1,8.64,1.86,14.64,14.64,0,0,1,5.34,4.45,9.54,9.54,0,0,1,1.92,4.8v.12a1,1,0,0,1-.38.79,1.28,1.28,0,0,1-.84.32H90.92a1.1,1.1,0,0,1-.78-.24,2.11,2.11,0,0,1-.5-.87,9.54,9.54,0,0,0-3.42-4.6,11,11,0,0,0-6.73-1.86,10.59,10.59,0,0,0-7.67,2.68c-1.85,1.78-2.84,4.54-3,8.26,0,1.13,0,2.85,0,5.18s0,4,0,5.18q.18,5.65,3,8.32a10.59,10.59,0,0,0,7.67,2.68,11.24,11.24,0,0,0,7.89-2.71c2-1.8,3-4.51,3-8.11v-2.51H81.46a1.25,1.25,0,0,1-1-.4,1.41,1.41,0,0,1-.38-1v-1.75a1.41,1.41,0,0,1,.38-1,1.25,1.25,0,0,1,1-.41h13a1.41,1.41,0,0,1,1,.38,1.39,1.39,0,0,1,.37,1v5.53a17.15,17.15,0,0,1-1.94,8.29A13.37,13.37,0,0,1,88.25,279,18.62,18.62,0,0,1,79.49,281C74.45,281,70.55,279.55,67.76,276.76Z"/><path class="cls-1" d="M107.22,277q-4.39-4-4.64-12-.06-1.76-.06-4.95t.06-4.89q.24-7.91,4.79-12t12.28-4.07q7.72,0,12.24,4.07t4.76,12c.09,2.25.13,3.88.13,4.89s0,2.62-.13,4.95q-.24,8-4.6,12t-12.4,4Q111.61,281,107.22,277Zm20.34-3.66q3-2.82,3.22-8.64c.08-2.33.12-3.88.12-4.66s0-2.4-.12-4.66c-.17-3.87-1.24-6.77-3.22-8.67a10.93,10.93,0,0,0-7.91-2.85,11.07,11.07,0,0,0-8,2.85c-2,1.9-3.06,4.8-3.18,8.67,0,1.13-.07,2.68-.07,4.66s0,3.49.07,4.66q.18,5.82,3.15,8.64a12.6,12.6,0,0,0,15.89,0Z"/></g><g id="on"><path class="cls-2" d="M144.49,277.1a2.51,2.51,0,0,1-.75-1.9,4,4,0,0,1,.07-.72,9.77,9.77,0,0,1,.26-1.26,4.67,4.67,0,0,1,1.4-2.43,3.84,3.84,0,0,1,2.64-.9,3,3,0,0,1,2.13.71,2.55,2.55,0,0,1,.75,1.93,3.69,3.69,0,0,1-.06.69c-.09.47-.18.9-.28,1.26a4.68,4.68,0,0,1-1.4,2.42,3.8,3.8,0,0,1-2.64.91A3,3,0,0,1,144.49,277.1Zm3.85-1a3.15,3.15,0,0,0,1-1.71c0-.15.12-.52.23-1.11a4,4,0,0,0,.08-.69,1.63,1.63,0,0,0-.41-1.2,1.56,1.56,0,0,0-1.18-.41,2.52,2.52,0,0,0-1.67.6,3.08,3.08,0,0,0-1,1.7,8.13,8.13,0,0,0-.25,1.11,4,4,0,0,0-.06.69,1.41,1.41,0,0,0,1.57,1.62A2.52,2.52,0,0,0,148.34,276.11Z"/><path class="cls-2" d="M151.92,277.56a.25.25,0,0,1,0-.24l1.48-6.95a.38.38,0,0,1,.15-.24.35.35,0,0,1,.26-.1h.63a.27.27,0,0,1,.22.09.29.29,0,0,1,0,.25l-.15.65a3.42,3.42,0,0,1,2.58-1.13,2.65,2.65,0,0,1,1.89.6,2.24,2.24,0,0,1,.62,1.68,5.44,5.44,0,0,1-.11,1l-.9,4.15a.42.42,0,0,1-.14.24.35.35,0,0,1-.26.1h-.67a.25.25,0,0,1-.22-.1.27.27,0,0,1-.05-.24l.86-4.06a4.73,4.73,0,0,0,.13-1,1.2,1.2,0,0,0-.35-1,1.63,1.63,0,0,0-1.12-.31,2.68,2.68,0,0,0-1.75.59,2.91,2.91,0,0,0-1,1.64l-.85,4.06a.42.42,0,0,1-.14.24.37.37,0,0,1-.26.1h-.67A.26.26,0,0,1,151.92,277.56Z"/></g></svg>